<mxfile host="www.draw.io" modified="2019-12-03T18:36:40.578Z" agent="Mozilla/5.0 (Windows NT 10.0; Win64; x64) AppleWebKit/537.36 (KHTML, like Gecko) Chrome/77.0.3865.90 Safari/537.36" etag="4LkTkBYjl0lPf6Sl5he3" version="12.3.6" type="github" pages="1">
  <diagram id="Si2tFHBfymC08MYFim_F" name="Page-1">
    <mxGraphModel dx="1408" dy="771" grid="1" gridSize="10" guides="1" tooltips="1" connect="1" arrows="1" fold="1" page="1" pageScale="1" pageWidth="1100" pageHeight="850" math="0" shadow="0">
      <root>
        <mxCell id="0"/>
        <mxCell id="1" parent="0"/>
        <mxCell id="CcmhJi7Ra0f81uH6UpxU-1" value="Employee" style="swimlane;fontStyle=1;align=center;verticalAlign=top;childLayout=stackLayout;horizontal=1;startSize=26;horizontalStack=0;resizeParent=1;resizeParentMax=0;resizeLast=0;collapsible=1;marginBottom=0;" vertex="1" parent="1">
          <mxGeometry x="351" y="24" width="160" height="112" as="geometry"/>
        </mxCell>
        <mxCell id="CcmhJi7Ra0f81uH6UpxU-2" value="name" style="text;strokeColor=none;fillColor=none;align=left;verticalAlign=top;spacingLeft=4;spacingRight=4;overflow=hidden;rotatable=0;points=[[0,0.5],[1,0.5]];portConstraint=eastwest;" vertex="1" parent="CcmhJi7Ra0f81uH6UpxU-1">
          <mxGeometry y="26" width="160" height="26" as="geometry"/>
        </mxCell>
        <mxCell id="CcmhJi7Ra0f81uH6UpxU-3" value="" style="line;strokeWidth=1;fillColor=none;align=left;verticalAlign=middle;spacingTop=-1;spacingLeft=3;spacingRight=3;rotatable=0;labelPosition=right;points=[];portConstraint=eastwest;" vertex="1" parent="CcmhJi7Ra0f81uH6UpxU-1">
          <mxGeometry y="52" width="160" height="8" as="geometry"/>
        </mxCell>
        <mxCell id="CcmhJi7Ra0f81uH6UpxU-4" value="mobile" style="text;strokeColor=none;fillColor=none;align=left;verticalAlign=top;spacingLeft=4;spacingRight=4;overflow=hidden;rotatable=0;points=[[0,0.5],[1,0.5]];portConstraint=eastwest;" vertex="1" parent="CcmhJi7Ra0f81uH6UpxU-1">
          <mxGeometry y="60" width="160" height="26" as="geometry"/>
        </mxCell>
        <mxCell id="CcmhJi7Ra0f81uH6UpxU-5" value="employee_no" style="text;strokeColor=#000000;fillColor=none;align=left;verticalAlign=top;spacingLeft=4;spacingRight=4;overflow=hidden;rotatable=0;points=[[0,0.5],[1,0.5]];portConstraint=eastwest;" vertex="1" parent="CcmhJi7Ra0f81uH6UpxU-1">
          <mxGeometry y="86" width="160" height="26" as="geometry"/>
        </mxCell>
        <mxCell id="CcmhJi7Ra0f81uH6UpxU-6" style="edgeStyle=orthogonalEdgeStyle;rounded=0;orthogonalLoop=1;jettySize=auto;html=1;endArrow=block;endFill=0;" edge="1" parent="1" source="CcmhJi7Ra0f81uH6UpxU-7">
          <mxGeometry relative="1" as="geometry">
            <mxPoint x="360" y="130" as="targetPoint"/>
            <Array as="points">
              <mxPoint x="320" y="175"/>
              <mxPoint x="360" y="175"/>
            </Array>
          </mxGeometry>
        </mxCell>
        <mxCell id="CcmhJi7Ra0f81uH6UpxU-7" value="Physician" style="swimlane;fontStyle=0;childLayout=stackLayout;horizontal=1;startSize=26;fillColor=none;horizontalStack=0;resizeParent=1;resizeParentMax=0;resizeLast=0;collapsible=1;marginBottom=0;strokeColor=#000000;" vertex="1" parent="1">
          <mxGeometry x="210" y="340" width="140" height="52" as="geometry"/>
        </mxCell>
        <mxCell id="CcmhJi7Ra0f81uH6UpxU-12" style="edgeStyle=orthogonalEdgeStyle;rounded=0;orthogonalLoop=1;jettySize=auto;html=1;entryX=0.631;entryY=1.038;entryDx=0;entryDy=0;entryPerimeter=0;endArrow=block;endFill=0;" edge="1" parent="1" source="CcmhJi7Ra0f81uH6UpxU-8" target="CcmhJi7Ra0f81uH6UpxU-5">
          <mxGeometry relative="1" as="geometry"/>
        </mxCell>
        <mxCell id="CcmhJi7Ra0f81uH6UpxU-8" value="Nurse" style="swimlane;fontStyle=0;childLayout=stackLayout;horizontal=1;startSize=26;fillColor=none;horizontalStack=0;resizeParent=1;resizeParentMax=0;resizeLast=0;collapsible=1;marginBottom=0;strokeColor=#000000;" vertex="1" parent="1">
          <mxGeometry x="382" y="340" width="140" height="52" as="geometry"/>
        </mxCell>
        <mxCell id="CcmhJi7Ra0f81uH6UpxU-9" style="edgeStyle=orthogonalEdgeStyle;rounded=0;orthogonalLoop=1;jettySize=auto;html=1;exitX=0.5;exitY=0;exitDx=0;exitDy=0;entryX=0.981;entryY=-0.269;entryDx=0;entryDy=0;endArrow=block;endFill=0;entryPerimeter=0;" edge="1" parent="1" source="CcmhJi7Ra0f81uH6UpxU-10" target="CcmhJi7Ra0f81uH6UpxU-4">
          <mxGeometry relative="1" as="geometry"/>
        </mxCell>
        <mxCell id="CcmhJi7Ra0f81uH6UpxU-10" value="Prescribing Physician" style="swimlane;fontStyle=0;childLayout=stackLayout;horizontal=1;startSize=26;fillColor=none;horizontalStack=0;resizeParent=1;resizeParentMax=0;resizeLast=0;collapsible=1;marginBottom=0;strokeColor=#000000;" vertex="1" parent="1">
          <mxGeometry x="580" y="340" width="140" height="52" as="geometry"/>
        </mxCell>
        <mxCell id="CcmhJi7Ra0f81uH6UpxU-11" value="expert_area" style="text;strokeColor=none;fillColor=none;align=left;verticalAlign=top;spacingLeft=4;spacingRight=4;overflow=hidden;rotatable=0;points=[[0,0.5],[1,0.5]];portConstraint=eastwest;" vertex="1" parent="CcmhJi7Ra0f81uH6UpxU-10">
          <mxGeometry y="26" width="140" height="26" as="geometry"/>
        </mxCell>
      </root>
    </mxGraphModel>
  </diagram>
</mxfile>
